<svg width="20" height="20" viewBox="0 0 20 20" fill="currentColor" xmlns="http://www.w3.org/2000/svg">
<path fill-rule="evenodd" clip-rule="evenodd" d="M13.3749 8.8249L12.4999 9.70615L10.2937 7.4999L11.1749 6.61865L13.3749 8.8249ZM19.3187 8.1999L8.16865 19.3187L5.4499 16.6062L5.8874 16.1624C6.43019 15.5925 6.41923 14.6936 5.86271 14.1371C5.30619 13.5806 4.40733 13.5696 3.8374 14.1124L3.39365 14.5499L0.681152 11.8312L11.8312 0.681152L14.5499 3.39365L14.1124 3.8374C13.5696 4.40733 13.5806 5.30619 14.1371 5.86271C14.6936 6.41923 15.5925 6.43019 16.1624 5.8874L16.6062 5.4499L19.3187 8.1999ZM8.16865 17.5749L14.2499 11.4874L13.2249 10.4624L14.1124 9.57491L15.1374 10.5999L17.5562 8.18741L16.5499 7.18116C15.4856 7.83277 14.1134 7.67006 13.2309 6.78763C12.3485 5.9052 12.1858 4.53299 12.8374 3.46866L11.8312 2.44366L9.41865 4.86241L10.4437 5.88741L9.55615 6.77491L8.53115 5.74991L2.44365 11.8312L3.4499 12.8374C4.51423 12.1858 5.88644 12.3485 6.76887 13.2309C7.6513 14.1134 7.81401 15.4856 7.1624 16.5499L8.16865 17.5749Z" fill="currentColor"/>
</svg>
