<?xml version="1.0" encoding="UTF-8"?>
<svg width="24px" height="24px" viewBox="0 0 24 24" version="1.1" xmlns="http://www.w3.org/2000/svg" xmlns:xlink="http://www.w3.org/1999/xlink">
    <!-- Generator: Sketch 53.2 (72643) - https://sketchapp.com -->
    <title>Deny</title>
    <desc>Created with Sketch.</desc>
    <defs>
        <path d="M12.0005333,0 C18.6285054,0 24,5.3728 24,12 C24,18.6272 18.6274388,24 12.0005333,24 C5.37362784,24 0,18.6282667 0,12 C0,5.3728 5.37256122,0 12.0005333,0 Z M3.6,13.2 C3.85192389,17.1555323 7.54675403,20.4 12.0148356,20.4 C16.4873249,20.4 20.1545696,17.1610253 20.4,13.2 L3.6,13.2 Z M3.6,10.8 L20.4,10.8 C20.1545696,6.83897466 16.4873249,3.6 12.0148356,3.6 C7.54675403,3.6 3.85192389,6.84446772 3.6,10.8 Z" id="path-1"></path>
    </defs>
    <g id="Deny" stroke="none" stroke-width="1" fill="none" fill-rule="evenodd">
        <mask id="mask-2" fill="white">
            <use xlink:href="#path-1"></use>
        </mask>
        <use id="Mask" fill="red" transform="translate(12.000000, 12.000000) rotate(-45.000000) translate(-12.000000, -12.000000) " xlink:href="#path-1"></use>
    </g>
</svg>