<?xml version="1.0"?>
<svg xmlns="http://www.w3.org/2000/svg" version="1" viewBox="0 0 24 24" enable-background="new 0 0 24 24">
    <path style="text-indent:0;text-align:start;line-height:normal;text-transform:none;block-progression:tb;-inkscape-font-specification:Bitstream Vera Sans" d="M 12.3125 2 C 7.8825855 2 4.3125 5.5700855 4.3125 10 C 4.3125 11.467058 4.7286532 12.819843 5.40625 14 L 5.3125 14 L 5.3125 16 L 19.3125 16 L 19.3125 14 C 19.525746 13.62163 19.708325 13.218774 19.84375 12.8125 L 19.875 12.78125 L 19.875 12.75 C 20.075 11.95 20.3125 11.048148 20.3125 10 C 20.3125 5.5700855 16.742415 2 12.3125 2 z M 12.3125 4 C 15.682585 4 18.3125 6.6299145 18.3125 10 C 18.3125 10.731532 18.130425 11.413986 17.9375 12.1875 C 17.735472 12.793585 17.328797 13.4472 16.84375 14 L 7.84375 14 C 6.9006703 12.891737 6.3125 11.518535 6.3125 10 C 6.3125 6.6299145 8.9424145 4 12.3125 4 z M 4.3125 17 L 4.3125 19 L 20.3125 19 L 20.3125 17 L 4.3125 17 z M 2.3125 20 L 2.3125 22 L 22.3125 22 L 22.3125 20 L 2.3125 20 z" overflow="visible" enable-background="accumulate" font-family="Bitstream Vera Sans"/>
</svg>
