<?xml version="1.0" encoding="UTF-8"?>
<svg width="24px" height="24px" viewBox="0 0 24 24" version="1.1" xmlns="http://www.w3.org/2000/svg" xmlns:xlink="http://www.w3.org/1999/xlink">
    <!-- Generator: Sketch 53.2 (72643) - https://sketchapp.com -->
    <title>Grid</title>
    <desc>Created with Sketch.</desc>
    <defs>
        <path d="M4,10.0029699 C3.99955875,9.99977932 10.0029699,10 10.0029699,10 C9.99977932,10.0004412 10,3.99703014 10,3.99703014 C10.0004412,4.00022068 3.99703014,4 3.99703014,4 C4.00022068,3.99955875 4,10.0029699 4,10.0029699 Z M3,3.99703014 C3,3.4463856 3.45303631,3 3.99703014,3 L10.0029699,3 C10.5536144,3 11,3.45303631 11,3.99703014 L11,10.0029699 C11,10.5536144 10.5469637,11 10.0029699,11 L3.99703014,11 C3.4463856,11 3,10.5469637 3,10.0029699 L3,3.99703014 Z M3,13.9970301 C3,13.4463856 3.45303631,13 3.99703014,13 L10.0029699,13 C10.5536144,13 11,13.4530363 11,13.9970301 L11,20.0029699 C11,20.5536144 10.5469637,21 10.0029699,21 L3.99703014,21 C3.4463856,21 3,20.5469637 3,20.0029699 L3,13.9970301 Z M4,20.0029699 C3.99955875,19.9997793 10.0029699,20 10.0029699,20 C9.99977932,20.0004412 10,13.9970301 10,13.9970301 C10.0004412,14.0002207 3.99703014,14 3.99703014,14 C4.00022068,13.9995588 4,20.0029699 4,20.0029699 Z M13,3.99703014 C13,3.4463856 13.4530363,3 13.9970301,3 L20.0029699,3 C20.5536144,3 21,3.45303631 21,3.99703014 L21,10.0029699 C21,10.5536144 20.5469637,11 20.0029699,11 L13.9970301,11 C13.4463856,11 13,10.5469637 13,10.0029699 L13,3.99703014 Z M14,10.0029699 C13.9995588,9.99977932 20.0029699,10 20.0029699,10 C19.9997793,10.0004412 20,3.99703014 20,3.99703014 C20.0004412,4.00022068 13.9970301,4 13.9970301,4 C14.0002207,3.99955875 14,10.0029699 14,10.0029699 Z M13,13.9970301 C13,13.4463856 13.4530363,13 13.9970301,13 L20.0029699,13 C20.5536144,13 21,13.4530363 21,13.9970301 L21,20.0029699 C21,20.5536144 20.5469637,21 20.0029699,21 L13.9970301,21 C13.4463856,21 13,20.5469637 13,20.0029699 L13,13.9970301 Z M14,20.0029699 C13.9995588,19.9997793 20.0029699,20 20.0029699,20 C19.9997793,20.0004412 20,13.9970301 20,13.9970301 C20.0004412,14.0002207 13.9970301,14 13.9970301,14 C14.0002207,13.9995588 14,20.0029699 14,20.0029699 Z" id="path-1"></path>
    </defs>
    <g id="Grid" stroke="none" stroke-width="1" fill="none" fill-rule="evenodd">
        <mask id="mask-2" fill="white">
            <use xlink:href="#path-1"></use>
        </mask>
        <use id="Mask" fill="#009fdb" fill-rule="nonzero" xlink:href="#path-1"></use>
    </g>
</svg>