<svg xmlns="http://www.w3.org/2000/svg" xmlns:xlink="http://www.w3.org/1999/xlink" version="1.1" x="0px" y="0px" viewBox="0 0 100 125" enable-background="new 0 0 100 100" xml:space="preserve"><g><g><path d="M93.462,22.021c0-0.67-0.9-1.218-2-1.218H8.538c-1.1,0-2,0.548-2,1.218s0.9,1.218,2,1.218h82.924    C92.562,23.24,93.462,22.691,93.462,22.021z"/></g><g><path d="M51.924,8.023c-1.059-0.301-2.79-0.301-3.848,0L10.463,18.718c-1.058,0.301-1.024,0.547,0.076,0.547h78.923    c1.1,0,1.135-0.246,0.076-0.547L51.924,8.023z"/></g><g><path d="M91.462,26.904c0-1.1-0.9-2-2-2H10.539c-1.1,0-2,0.9-2,2v3.262c0,1.1,0.9,2,2,2h78.923c1.1,0,2-0.9,2-2V26.904z"/></g><g><path d="M93.877,87.219c-0.228-1.076-1.314-1.957-2.414-1.957H8.538c-1.1,0-2.187,0.881-2.415,1.957l-0.709,3.348    C5.187,91.643,5.9,92.523,7,92.523h86c1.1,0,1.813-0.881,1.586-1.957L93.877,87.219z"/></g><g><path d="M10.585,34.728c-1.1,0-1.539,0.539-0.975,1.196c0.564,0.658,1.925,1.196,3.025,1.196h0.574c1.1,0,2.461-0.539,3.025-1.196    c0.563-0.658,0.125-1.196-0.975-1.196H10.585z"/></g><g><path d="M21.179,34.728c-1.1,0-1.539,0.539-0.975,1.196c0.564,0.658,1.925,1.196,3.025,1.196h0.574c1.1,0,2.461-0.539,3.025-1.196    c0.563-0.658,0.125-1.196-0.975-1.196H21.179z"/></g><g><path d="M31.772,34.728c-1.1,0-1.539,0.539-0.975,1.196c0.563,0.658,1.925,1.196,3.025,1.196h0.574c1.1,0,2.461-0.539,3.025-1.196    c0.564-0.658,0.125-1.196-0.975-1.196H31.772z"/></g><g><path d="M42.366,34.728c-1.1,0-1.539,0.539-0.975,1.196c0.563,0.658,1.925,1.196,3.025,1.196h0.574c1.1,0,2.461-0.539,3.025-1.196    c0.564-0.658,0.125-1.196-0.975-1.196H42.366z"/></g><g><path d="M52.96,34.728c-1.1,0-1.539,0.539-0.976,1.196c0.564,0.658,1.926,1.196,3.025,1.196h0.574c1.1,0,2.461-0.539,3.025-1.196    s0.125-1.196-0.975-1.196H52.96z"/></g><g><path d="M63.554,34.728c-1.1,0-1.539,0.539-0.976,1.196c0.564,0.658,1.926,1.196,3.025,1.196h0.574c1.1,0,2.461-0.539,3.025-1.196    s0.125-1.196-0.975-1.196H63.554z"/></g><g><path d="M74.147,34.728c-1.1,0-1.539,0.539-0.976,1.196c0.564,0.658,1.926,1.196,3.025,1.196h0.574c1.1,0,2.461-0.539,3.025-1.196    s0.125-1.196-0.975-1.196H74.147z"/></g><g><path d="M84.74,34.728c-1.1,0-1.539,0.539-0.975,1.196s1.926,1.196,3.025,1.196h0.574c1.1,0,2.461-0.539,3.025-1.196    c0.563-0.658,0.124-1.196-0.976-1.196H84.74z"/></g><g><path d="M12.636,38.659c-1.1,0-2.031,0.899-2.07,1.999L9.168,80.7c-0.039,1.1,0.83,1.999,1.93,1.999h3.12    c1.1,0,1.969-0.899,1.93-1.999L14.75,40.657c-0.039-1.099-0.97-1.999-2.07-1.999H12.636z"/></g><g><path d="M23.494,38.659c-1.1,0-2.031,0.899-2.07,1.999L20.026,80.7c-0.039,1.1,0.83,1.999,1.93,1.999h3.12    c1.1,0,1.969-0.899,1.93-1.999l-1.398-40.043c-0.039-1.099-0.97-1.999-2.07-1.999H23.494z"/></g><g><path d="M34.088,38.659c-1.1,0-2.031,0.899-2.07,1.999L30.62,80.7c-0.039,1.1,0.83,1.999,1.93,1.999h3.12    c1.1,0,1.969-0.899,1.93-1.999l-1.398-40.043c-0.039-1.099-0.97-1.999-2.07-1.999H34.088z"/></g><g><path d="M44.681,38.659c-1.1,0-2.031,0.899-2.07,1.999L41.213,80.7c-0.039,1.1,0.83,1.999,1.93,1.999h3.12    c1.1,0,1.969-0.899,1.93-1.999l-1.398-40.043c-0.039-1.099-0.97-1.999-2.07-1.999H44.681z"/></g><g><path d="M55.275,38.659c-1.1,0-2.031,0.899-2.069,1.999L51.807,80.7c-0.038,1.1,0.831,1.999,1.931,1.999h3.12    c1.1,0,1.969-0.899,1.931-1.999L57.39,40.657c-0.038-1.099-0.97-1.999-2.069-1.999H55.275z"/></g><g><path d="M65.868,38.659c-1.1,0-2.031,0.899-2.069,1.999L62.4,80.7c-0.038,1.1,0.831,1.999,1.931,1.999h3.12    c1.1,0,1.969-0.899,1.931-1.999l-1.399-40.043c-0.038-1.099-0.97-1.999-2.069-1.999H65.868z"/></g><g><path d="M76.462,38.659c-1.1,0-2.031,0.899-2.069,1.999L72.994,80.7c-0.038,1.1,0.831,1.999,1.931,1.999h3.12    c1.1,0,1.969-0.899,1.931-1.999l-1.399-40.043c-0.038-1.099-0.97-1.999-2.069-1.999H76.462z"/></g><g><path d="M87.056,38.659c-1.1,0-2.031,0.899-2.069,1.999L83.587,80.7c-0.038,1.1,0.831,1.999,1.931,1.999h3.12    c1.1,0,1.969-0.899,1.931-1.999L89.17,40.657c-0.038-1.099-0.97-1.999-2.069-1.999H87.056z"/></g></g><text x="0" y="115" fill="#000000" font-size="5px" font-weight="bold" font-family="'Helvetica Neue', Helvetica, Arial-Unicode, Arial, Sans-serif">Created by Andrea Severgnini</text><text x="0" y="120" fill="#000000" font-size="5px" font-weight="bold" font-family="'Helvetica Neue', Helvetica, Arial-Unicode, Arial, Sans-serif">from the Noun Project</text></svg>