<?xml version="1.0" encoding="UTF-8"?>
<svg width="24px" height="24px" viewBox="0 0 24 24" version="1.1" xmlns="http://www.w3.org/2000/svg" xmlns:xlink="http://www.w3.org/1999/xlink">
    <!-- Generator: Sketch 53.2 (72643) - https://sketchapp.com -->
    <title>Grid filterted</title>
    <desc>Created with Sketch.</desc>
    <defs>
        <path d="M2,15.7477726 C2,15.3347892 2.33977723,15 2.7477726,15 L7.2522274,15 C7.6652108,15 8,15.3397772 8,15.7477726 L8,20.2522274 C8,20.6652108 7.66022277,21 7.2522274,21 L2.7477726,21 C2.3347892,21 2,20.6602228 2,20.2522274 L2,15.7477726 Z M2.99900809,19.9970301 C2.99871422,19.9949052 6.99703014,19.9950522 6.99703014,19.9950522 C6.99490521,19.9953461 6.99505219,15.9970301 6.99505219,15.9970301 C6.99534606,15.9991551 2.99703014,15.9990081 2.99703014,15.9990081 C2.99915507,15.9987142 2.99900809,19.9970301 2.99900809,19.9970301 Z M9,15.7477726 C9,15.3347892 9.33977723,15 9.7477726,15 L14.2522274,15 C14.6652108,15 15,15.3397772 15,15.7477726 L15,20.2522274 C15,20.6652108 14.6602228,21 14.2522274,21 L9.7477726,21 C9.3347892,21 9,20.6602228 9,20.2522274 L9,15.7477726 Z M9.99900809,19.9970301 C9.99871422,19.9949052 13.9970301,19.9950522 13.9970301,19.9950522 C13.9949052,19.9953461 13.9950522,15.9970301 13.9950522,15.9970301 C13.9953461,15.9991551 9.99703014,15.9990081 9.99703014,15.9990081 C9.99915507,15.9987142 9.99900809,19.9970301 9.99900809,19.9970301 Z M16,15.7477726 C16,15.3347892 16.3397772,15 16.7477726,15 L21.2522274,15 C21.6652108,15 22,15.3397772 22,15.7477726 L22,20.2522274 C22,20.6652108 21.6602228,21 21.2522274,21 L16.7477726,21 C16.3347892,21 16,20.6602228 16,20.2522274 L16,15.7477726 Z M16.9990081,19.9970301 C16.9987142,19.9949052 20.9970301,19.9950522 20.9970301,19.9950522 C20.9949052,19.9953461 20.9950522,15.9970301 20.9950522,15.9970301 C20.9953461,15.9991551 16.9970301,15.9990081 16.9970301,15.9990081 C16.9991551,15.9987142 16.9990081,19.9970301 16.9990081,19.9970301 Z M2,2.7477726 C2,2.3347892 2.33977723,2 2.7477726,2 L7.2522274,2 C7.6652108,2 8,2.33977723 8,2.7477726 L8,7.2522274 C8,7.6652108 7.66022277,8 7.2522274,8 L2.7477726,8 C2.3347892,8 2,7.66022277 2,7.2522274 L2,2.7477726 Z M2.99900809,6.99703014 C2.99871422,6.99490521 6.99703014,6.99505219 6.99703014,6.99505219 C6.99490521,6.99534606 6.99505219,2.99703014 6.99505219,2.99703014 C6.99534606,2.99915507 2.99703014,2.99900809 2.99703014,2.99900809 C2.99915507,2.99871422 2.99900809,6.99703014 2.99900809,6.99703014 Z M9,2.7477726 C9,2.3347892 9.33977723,2 9.7477726,2 L14.2522274,2 C14.6652108,2 15,2.33977723 15,2.7477726 L15,7.2522274 C15,7.6652108 14.6602228,8 14.2522274,8 L9.7477726,8 C9.3347892,8 9,7.66022277 9,7.2522274 L9,2.7477726 Z M9.99900809,6.99703014 C9.99871422,6.99490521 13.9970301,6.99505219 13.9970301,6.99505219 C13.9949052,6.99534606 13.9950522,2.99703014 13.9950522,2.99703014 C13.9953461,2.99915507 9.99703014,2.99900809 9.99703014,2.99900809 C9.99915507,2.99871422 9.99900809,6.99703014 9.99900809,6.99703014 Z M16,2.7477726 C16,2.3347892 16.3397772,2 16.7477726,2 L21.2522274,2 C21.6652108,2 22,2.33977723 22,2.7477726 L22,7.2522274 C22,7.6652108 21.6602228,8 21.2522274,8 L16.7477726,8 C16.3347892,8 16,7.66022277 16,7.2522274 L16,2.7477726 Z M16.9990081,6.99703014 C16.9987142,6.99490521 20.9970301,6.99505219 20.9970301,6.99505219 C20.9949052,6.99534606 20.9950522,2.99703014 20.9950522,2.99703014 C20.9953461,2.99915507 16.9970301,2.99900809 16.9970301,2.99900809 C16.9991551,2.99871422 16.9990081,6.99703014 16.9990081,6.99703014 Z M2,11 L22,11 L22,12 L2,12 L2,11 Z" id="path-1"></path>
    </defs>
    <g id="Grid-filterted" stroke="none" stroke-width="1" fill="none" fill-rule="evenodd">
        <mask id="mask-2" fill="white">
            <use xlink:href="#path-1"></use>
        </mask>
        <use id="Mask" fill="#009fdb" fill-rule="nonzero" xlink:href="#path-1"></use>
    </g>
</svg>