<?xml version="1.0" encoding="UTF-8"?>
<svg width="24px" height="24px" viewBox="0 0 24 24" version="1.1" xmlns="http://www.w3.org/2000/svg" xmlns:xlink="http://www.w3.org/1999/xlink">
    <!-- Generator: Sketch 53.2 (72643) - https://sketchapp.com -->
    <title>Pending</title>
    <desc>Created with Sketch.</desc>
    <defs>
        <path d="M12.0005333,0 C18.6285054,0 24,5.3728 24,12 C24,18.6272 18.6274388,24 12.0005333,24 C5.37362784,24 0,18.6282667 0,12 C0,5.3728 5.37256122,0 12.0005333,0 Z M12,21 C16.9705627,21 21,16.9705627 21,12 C21,7.02943725 16.9705627,3 12,3 C7.02943725,3 3,7.02943725 3,12 C3,16.9705627 7.02943725,21 12,21 Z M11.25,10 L12.75,10 C13.0261424,10 13.25,10.2238576 13.25,10.5 L13.25,17.5 C13.25,17.7761424 13.0261424,18 12.75,18 L11.25,18 C10.9738576,18 10.75,17.7761424 10.75,17.5 L10.75,10.5 C10.75,10.2238576 10.9738576,10 11.25,10 Z M10.5,7.24331551 C10.5,6.87789479 10.6397045,6.5793238 10.9191176,6.34759358 C11.1985308,6.11586337 11.5588213,6 12,6 C12.4411787,6 12.8014692,6.11586337 13.0808824,6.34759358 C13.3602955,6.5793238 13.5,6.87789479 13.5,7.24331551 C13.5,7.60873623 13.3602955,7.90953536 13.0808824,8.14572193 C12.8014692,8.38190849 12.4411787,8.5 12,8.5 C11.5588213,8.5 11.1985308,8.38190849 10.9191176,8.14572193 C10.6397045,7.90953536 10.5,7.60873623 10.5,7.24331551 Z" id="path-1"></path>
    </defs>
    <g id="Pending" stroke="none" stroke-width="1" fill="none" fill-rule="evenodd">
        <mask id="mask-2" fill="white">
            <use xlink:href="#path-1"></use>
        </mask>
        <use id="Mask" fill="#00acff" xlink:href="#path-1"></use>
    </g>
</svg>