<?xml version="1.0" encoding="UTF-8"?>
<svg width="100px" height="100px" viewBox="0 0 100 100" version="1.1" xmlns="http://www.w3.org/2000/svg" xmlns:xlink="http://www.w3.org/1999/xlink">
    <!-- Generator: Sketch 52.2 (67145) - http://www.bohemiancoding.com/sketch -->
    <title>faliure</title>
    <desc>Created with Sketch.</desc>
    <defs>
        <path d="M45.0848105,33.806486 C44.8374024,32.2762961 45.1307577,31.0465116 45.9719452,30.1891046 C46.7318415,29.4099282 47.9194003,29 49.39678,29 L51.2735471,29 C52.7509268,29 53.9349512,29.4099282 54.6983819,30.1891046 C55.536035,31.0433824 55.8329247,32.2731669 55.5784478,33.8471659 L53.4083254,55.4325439 C53.1821237,56.5621933 52.814546,58.3333333 50.6726989,58.3333333 L49.845649,58.3333333 C47.7815586,58.3333333 47.4846689,56.4026029 47.3397585,55.4732238 L45.0848105,33.806486 Z M55.6666667,67.3561159 L55.6666667,68.0329573 C55.6666667,70.3421809 53.8981905,71.6666667 50.8146937,71.6666667 L49.7787225,71.6666667 C46.7405712,71.6666667 45,70.3421809 45,68.0329573 L45,67.3561159 C45,65.0468923 46.7859167,63.6666667 49.7787225,63.6666667 L50.8146937,63.6666667 C53.852845,63.6666667 55.6666667,65.044238 55.6666667,67.3561159 Z" id="path-1"></path>
    </defs>
    <g id="faliure" stroke="none" stroke-width="1" fill="none" fill-rule="evenodd">
        <path d="M50,0 C77.6,0 100,22.4 100,50 C100,77.6 77.6,100 50,100 C22.4,100 0,77.6 0,50 C0,22.4 22.4,0 50,0 Z" id="Shape" fill="#FBFBFB"></path>
        <mask id="mask-2" fill="white">
            <use xlink:href="#path-1"></use>
        </mask>
        <use id="Mask" fill="#CF2A2A" xlink:href="#path-1"></use>
    </g>
</svg>